<svg width="120" height="42" viewBox="0 0 120 42" fill="none" xmlns="http://www.w3.org/2000/svg">
  <path d="M45.625 21.15C45.625 9.765 35.875 0.5 24 0.5C12.125 0.5 2.375 9.765 2.375 21.15C2.375 32.535 12.125 41.8 24 41.8C35.875 41.8 45.625 32.535 45.625 21.15Z" fill="#C7AB6E"/>
  <path d="M24 6.5C24 6.5 18.3 13.4 18.3 21.15C18.3 28.9 24 35.8 24 35.8C24 35.8 29.7 28.9 29.7 21.15C29.7 13.4 24 6.5 24 6.5Z" fill="white"/>
  <path d="M14.1 21.15C14.1 21.15 19.8 23.05 24 23.05C28.2 23.05 33.9 21.15 33.9 21.15C33.9 21.15 28.2 19.25 24 19.25C19.8 19.25 14.1 21.15 14.1 21.15Z" fill="white"/>
  <path d="M53 14.5H56.5C58.7 14.5 60.3 16.1 60.3 18.1C60.3 20.1 58.7 21.7 56.5 21.7H55V26.5H53V14.5ZM56.4 19.9C57.5 19.9 58.3 19.1 58.3 18.1C58.3 17.1 57.5 16.3 56.4 16.3H55V19.9H56.4Z" fill="#231E1B"/>
  <path d="M68 23.3H63.7L62.7 26.5H60.6L65 14.5H66.8L71.2 26.5H69.1L68 23.3ZM67.4 21.5L65.9 17.2L64.3 21.5H67.4Z" fill="#231E1B"/>
  <path d="M80.1 14.5V16.3H77V26.5H75V16.3H71.9V14.5H80.1Z" fill="#231E1B"/>
  <path d="M86.5 26.5H84.5V14.5H86.5V26.5Z" fill="#231E1B"/>
  <path d="M89.6 25.7C88.5 24.7 87.9 23.2 87.9 21.5V19.5C87.9 17.8 88.5 16.3 89.6 15.3C90.7 14.3 92.2 13.8 93.9 13.8C95.6 13.8 97.1 14.3 98.2 15.3C99.3 16.3 99.9 17.8 99.9 19.5H97.9C97.9 18.3 97.5 17.3 96.8 16.6C96.1 15.9 95.1 15.6 93.9 15.6C92.7 15.6 91.7 15.9 91 16.6C90.3 17.3 89.9 18.3 89.9 19.5V21.5C89.9 22.7 90.3 23.7 91 24.4C91.7 25.1 92.7 25.4 93.9 25.4C95.1 25.4 96.1 25.1 96.8 24.4C97.5 23.7 97.9 22.7 97.9 21.5H99.9C99.9 23.2 99.3 24.7 98.2 25.7C97.1 26.7 95.6 27.2 93.9 27.2C92.2 27.2 90.7 26.7 89.6 25.7Z" fill="#231E1B"/>
  <path d="M106.8 16.3H102.8V19.6H106.4V21.4H102.8V24.7H106.8V26.5H100.8V14.5H106.8V16.3Z" fill="#231E1B"/>
  <path d="M115.6 20H118.6V26.5H116.8L116.6 25.3C115.7 26.6 114.3 27.2 112.7 27.2C111.2 27.2 110 26.7 109.1 25.7C108.2 24.7 107.7 23.2 107.7 21.5V19.5C107.7 17.8 108.2 16.3 109.1 15.3C110 14.3 111.2 13.8 112.7 13.8C114.2 13.8 115.4 14.3 116.3 15.2C117.2 16.1 117.6 17.3 117.6 18.9H115.6C115.6 17.9 115.3 17.1 114.8 16.6C114.3 16.1 113.6 15.8 112.7 15.8C111.8 15.8 111.1 16.1 110.6 16.7C110.1 17.3 109.7 18.3 109.7 19.5V21.5C109.7 22.7 110 23.7 110.6 24.3C111.1 24.9 111.8 25.2 112.7 25.2C113.6 25.2 114.3 24.9 114.8 24.4C115.3 23.9 115.6 23.1 115.6 22.1V21.8H112.7V20H115.6Z" fill="#231E1B"/>
</svg>
